HIERARCHY
ROOT Hips
{
	OFFSET 0.000000 0.000000 0.000000
	CHANNELS 6 Xposition Yposition Zposition Zrotation Yrotation Xrotation 
	JOINT LHipJoint
	{
		OFFSET 0.000000 0.000000 0.000000
		CHANNELS 3 Zrotation Yrotation Xrotation
		JOINT LeftUpLeg
		{
			OFFSET 1.363060 -1.794630 0.839290
			CHANNELS 3 Zrotation Yrotation Xrotation
			JOINT LeftLeg
			{
				OFFSET 2.448110 -6.726130 0.000000
				CHANNELS 3 Zrotation Yrotation Xrotation
				JOINT LeftFoot
				{
					OFFSET 2.562200 -7.039590 0.000000
					CHANNELS 3 Zrotation Yrotation Xrotation
					JOINT LeftToeBase
					{
						OFFSET 0.157640 -0.433110 2.322550
						CHANNELS 3 Zrotation Yrotation Xrotation
						End Site
						{
							OFFSET 0.000000 0.000000 0.000000
						}
					}
				}
			}
		}
	}
	JOINT RHipJoint
	{
		OFFSET 0.000000 0.000000 0.000000
		CHANNELS 3 Zrotation Yrotation Xrotation
		JOINT RightUpLeg
		{
			OFFSET -1.305520 -1.794630 0.839290
			CHANNELS 3 Zrotation Yrotation Xrotation
			JOINT RightLeg
			{
				OFFSET -2.542530 -6.985550 0.000000
				CHANNELS 3 Zrotation Yrotation Xrotation
				JOINT RightFoot
				{
					OFFSET -2.568260 -7.056230 0.000000
					CHANNELS 3 Zrotation Yrotation Xrotation
					JOINT RightToeBase
					{
						OFFSET -0.164730 -0.452590 2.363150
						CHANNELS 3 Zrotation Yrotation Xrotation
						End Site
						{
							OFFSET 0.000000 0.000000 0.000000
						}
					}
				}
			}
		}
	}
	JOINT LowerBack
	{
		OFFSET 0.000000 0.000000 0.000000
		CHANNELS 3 Zrotation Yrotation Xrotation
		JOINT Spine
		{
			OFFSET 0.028270 2.035590 -0.193380
			CHANNELS 3 Zrotation Yrotation Xrotation
			JOINT Spine1
			{
				OFFSET 0.056720 2.048850 -0.042750
				CHANNELS 3 Zrotation Yrotation Xrotation
				JOINT Neck
				{
					OFFSET 0.000000 0.000000 0.000000
					CHANNELS 3 Zrotation Yrotation Xrotation
					JOINT Neck1
					{
						OFFSET -0.054170 1.746240 0.172020
						CHANNELS 3 Zrotation Yrotation Xrotation
						JOINT Head
						{
							OFFSET 0.104070 1.761360 -0.123970
							CHANNELS 3 Zrotation Yrotation Xrotation
							End Site
							{
								OFFSET 0.000000 0.000000 0.000000
							}
						}
					}
				}
				JOINT LeftShoulder
				{
					OFFSET 0.000000 0.000000 0.000000
					CHANNELS 3 Zrotation Yrotation Xrotation
					JOINT LeftArm
					{
						OFFSET 3.362410 1.200890 -0.311210
						CHANNELS 3 Zrotation Yrotation Xrotation
						JOINT LeftForeArm
						{
							OFFSET 4.983000 -0.000000 -0.000000
							CHANNELS 3 Zrotation Yrotation Xrotation
							JOINT LeftHand
							{
								OFFSET 3.483560 -0.000000 -0.000000
								CHANNELS 3 Zrotation Yrotation Xrotation
								JOINT LeftFingerBase
								{
									OFFSET 0.000000 0.000000 0.000000
									CHANNELS 3 Zrotation Yrotation Xrotation
									JOINT LeftHandIndex1
									{
										OFFSET 0.715260 -0.000000 -0.000000
										CHANNELS 3 Zrotation Yrotation Xrotation
										End Site
										{
											OFFSET 0.000000 0.000000 0.000000
										}
									}
								}
								JOINT LThumb
								{
									OFFSET 0.000000 0.000000 0.000000
									CHANNELS 3 Zrotation Yrotation Xrotation
									End Site
									{
										OFFSET 0.000000 0.000000 0.000000
									}
								}
							}
						}
					}
				}
				JOINT RightShoulder
				{
					OFFSET 0.000000 0.000000 0.000000
					CHANNELS 3 Zrotation Yrotation Xrotation
					JOINT RightArm
					{
						OFFSET -3.136600 1.374050 -0.404650
						CHANNELS 3 Zrotation Yrotation Xrotation
						JOINT RightForeArm
						{
							OFFSET -5.241900 -0.000000 -0.000000
							CHANNELS 3 Zrotation Yrotation Xrotation
							JOINT RightHand
							{
								OFFSET -3.444170 -0.000000 -0.000000
								CHANNELS 3 Zrotation Yrotation Xrotation
								JOINT RightFingerBase
								{
									OFFSET 0.000000 0.000000 0.000000
									CHANNELS 3 Zrotation Yrotation Xrotation
									JOINT RightHandIndex1
									{
										OFFSET -0.622530 -0.000000 -0.000000
										CHANNELS 3 Zrotation Yrotation Xrotation
										End Site
										{
											OFFSET 0.000000 0.000000 0.000000
										}
									}
								}
								JOINT RThumb
								{
									OFFSET 0.000000 0.000000 0.000000
									CHANNELS 3 Zrotation Yrotation Xrotation
									End Site
									{
										OFFSET 0.000000 0.000000 0.000000
									}
								}
							}
						}
					}
				}
			}
		}
	}
}
MOTION
Frames: 7
Frame Time: 0.008333
-5.774713 17.836534 3.825795 -10.742606 43.185300 2.784083 -1.069896 2.103234 2.072494 1.758228 16.780996 -18.149320 3.463432 10.951424 33.277728 -3.099205 15.877843 1.542361 3.492000 -11.451900 -33.819400 4.790456 -0.043839 -0.147661 17.732793 24.208702 -22.768562 -2.611859 -9.108099 28.288262 -0.851045 20.724780 10.132681 -1.981300 -8.827100 25.255900 -13.600957 -8.545675 5.072389 -8.702047 -12.233346 2.206174 8.013827 -6.130055 0.332598 2.508729 21.784410 -3.508037 -10.146285 30.024413 8.511769 -1.856200 13.463300 7.947400 1.015889 4.032588 -1.226939 -176.796393 -45.193915 169.949296 19.740832 -28.915124 -5.008814 0.547090 0.015204 7.833699 26.860653 0.545678 0.221700 -7.125000 0.000000 0.000000 0.330400 -59.519800 179.882900 2.040888 -5.762186 -2.076278 64.662628 44.867509 6.307136 -122.966091 57.190669 -85.086433 0.191361 -0.396607 -5.153149 -74.081249 21.373479 -53.790900 7.125000 0.000000 0.000000 -25.810900 22.560300 -36.561500 
-5.774313 17.836734 3.857613 -10.607565 42.945762 2.866996 -1.085978 2.129737 2.084569 1.841639 16.826785 -18.004587 3.477956 10.947990 33.256868 -3.081794 15.920588 2.097651 3.630700 -11.652000 -34.511700 4.769599 -0.051605 -0.156559 17.805380 24.290986 -22.639900 -2.617955 -9.119486 28.330326 -0.839477 20.818931 10.366018 -2.109800 -9.091100 26.080600 -13.437341 -8.519691 5.167520 -9.029803 -12.228111 1.962098 7.888278 -6.108849 0.175708 2.657376 21.770231 -3.190900 -10.100848 29.902901 8.183445 -1.924400 13.454800 7.789700 1.032209 4.040195 -1.220426 -177.397519 -44.657719 170.347705 20.022599 -29.219217 -5.137488 0.556122 0.006584 7.858214 27.409533 -0.047881 -0.071300 -7.125000 0.000000 0.000000 -0.403800 -60.177700 -179.850500 2.053293 -5.817222 -1.999748 63.000922 44.983702 5.018151 -123.789428 56.927589 -85.777813 0.201897 -0.395709 -4.418409 -74.486028 21.687134 -54.910800 7.125000 0.000000 0.000000 -25.995100 23.534900 -37.047200 
-5.775214 17.835834 3.890432 -10.366901 42.736365 3.048399 -1.112783 2.148750 2.094748 1.828395 16.853644 -17.923745 3.495563 10.947987 33.224629 -3.074381 16.102018 3.045918 3.998600 -12.158600 -36.295400 4.755377 -0.057735 -0.164382 17.764221 24.452943 -22.527908 -2.625391 -9.128815 28.371573 -0.833418 20.869310 10.471166 -2.182600 -9.236600 26.538200 -13.371264 -8.542532 5.241318 -9.342957 -12.281042 1.788431 7.795459 -6.122807 0.089528 2.649905 21.799970 -3.162759 -10.000882 29.863243 7.894041 -1.923100 13.463100 7.667900 1.053573 4.058212 -1.209568 -178.209960 -44.216820 171.177819 20.254999 -29.444127 -5.240415 0.567606 0.008641 7.555786 27.988564 -0.435524 -0.275900 -7.125000 0.000000 0.000000 -1.197700 -60.618700 -179.543900 2.071945 -5.862286 -1.925150 61.429680 45.208091 3.727249 -124.663221 56.645647 -86.513718 0.212125 -0.404321 -3.606469 -74.444801 21.824777 -55.010800 7.125000 0.000000 0.000000 -25.942100 23.672000 -36.982900 
-5.776614 17.842838 3.926353 -10.103375 42.544031 3.288756 -1.131180 2.162297 2.108831 1.799445 16.894676 -17.849248 3.497932 10.953191 33.250268 -3.048728 15.999994 3.043437 3.663000 -11.698000 -34.671700 4.746731 -0.060474 -0.174793 17.690606 24.622421 -22.459510 -2.633264 -9.136993 28.412635 -0.827573 20.921748 10.559643 -2.241000 -9.351000 26.899700 -13.459016 -8.600411 5.223058 -9.521880 -12.368063 1.661523 7.803172 -6.161886 0.114365 2.439508 21.886604 -3.248835 -9.875565 29.896698 7.529074 -1.879000 13.498300 7.514400 1.067464 4.084962 -1.199064 -179.179724 -43.909068 172.307937 20.510004 -29.686043 -5.354760 0.581254 0.018685 7.286240 28.663899 -0.442424 -0.293400 -7.125000 0.000000 0.000000 -2.121800 -60.640700 -179.190800 2.095181 -5.902487 -1.847794 59.707616 45.535020 2.398291 -125.391668 56.398504 -87.127829 0.222514 -0.414062 -2.799728 -74.292854 21.640064 -54.549700 7.125000 0.000000 0.000000 -25.907200 23.240900 -36.847800 
-5.777615 17.852143 3.961373 -9.791078 42.332044 3.555972 -1.151190 2.172739 2.120566 1.736545 16.975679 -17.773364 3.504799 10.969888 33.328095 -3.007201 15.792922 2.859941 3.261800 -11.107300 -32.642700 4.736244 -0.058202 -0.184566 17.590721 24.702997 -22.397670 -2.635722 -9.140747 28.429321 -0.817297 21.048275 10.654460 -2.259900 -9.387600 27.015600 -13.600265 -8.628341 5.210627 -9.684901 -12.421738 1.510289 7.851435 -6.180587 0.133003 2.385082 21.948543 -3.142738 -10.020958 29.880966 7.029883 -1.946800 13.515400 7.344700 1.075221 4.098497 -1.192527 179.898556 -43.560329 173.207900 20.735028 -29.890744 -5.454828 0.593128 0.022032 7.380666 29.271877 -0.580550 -0.380800 -7.125000 0.000000 0.000000 -2.968400 -60.808500 -178.855800 2.113177 -5.954127 -1.772286 57.911951 45.819310 1.037603 -125.979640 56.179350 -87.620558 0.233026 -0.415075 -1.927024 -74.620848 21.652098 -55.191800 7.125000 0.000000 0.000000 -26.127900 23.717400 -37.301500 
-5.778616 17.857646 3.993491 -9.606454 42.119630 3.745749 -1.161025 2.186232 2.116236 1.708357 17.128692 -17.817288 3.541329 10.999148 33.394818 -2.985099 15.892981 3.624187 3.590200 -11.594100 -34.310900 4.727804 -0.060404 -0.192027 17.578804 24.803491 -22.327171 -2.632309 -9.131160 28.407451 -0.810892 21.119682 10.735299 -2.273600 -9.414200 27.099600 -13.626121 -8.599046 5.203673 -9.799151 -12.398240 1.353509 7.863938 -6.158373 0.099091 2.344089 21.947543 -2.959970 -10.162979 29.786639 6.582342 -2.031600 13.498000 7.177100 1.079300 4.109034 -1.196540 179.058255 -43.023434 173.848877 20.903988 -30.026576 -5.527025 0.603665 0.019578 7.616957 29.817822 -0.941764 -0.593800 -7.125000 0.000000 0.000000 -3.763800 -61.228500 -178.511200 2.126002 -6.003972 -1.701192 56.065654 45.996213 -0.458513 -126.594131 55.936450 -88.131573 0.243632 -0.416912 -1.102308 -75.044757 22.293244 -56.695900 7.125000 0.000000 0.000000 -26.241200 25.125700 -37.724700 
-5.780517 17.857046 4.025810 -9.612557 41.961705 3.802442 -1.148318 2.204503 2.111077 1.826306 17.197164 -17.861873 3.580273 11.028295 33.452072 -2.968171 16.016430 4.341773 3.856800 -11.967400 -35.616800 4.724782 -0.071397 -0.198642 17.705734 24.993619 -22.218339 -2.627180 -9.113163 28.367705 -0.814129 21.038685 10.820958 -2.321900 -9.506600 27.393200 -13.560394 -8.599579 5.195633 -9.835376 -12.405069 1.241073 7.846017 -6.156657 0.060490 2.133522 21.978925 -3.030560 -9.999356 29.788917 6.416428 -1.976700 13.510900 7.080100 1.084071 4.136547 -1.200815 178.244243 -42.541688 174.525311 21.081954 -30.172275 -5.604910 0.615759 0.018909 7.611863 30.439291 -1.342056 -0.840800 -7.125000 0.000000 0.000000 -4.691700 -61.696900 -178.091300 2.141492 -6.035062 -1.633805 54.235565 46.144845 -1.936628 -127.200478 55.689228 -88.640033 0.254360 -0.423504 -0.311925 -75.178018 22.670599 -57.355800 7.125000 0.000000 0.000000 -26.236600 25.783600 -37.817000 
